HIERARCHY
ROOT Hips
{
	OFFSET	0.000000	0.000000	0.000000
	CHANNELS 6 Xposition Yposition Zposition Zrotation Xrotation Yrotation
	JOINT LeftUpLeg
	{
		OFFSET	12.830505	-7.049846	-1.643436
		CHANNELS 3 Zrotation Xrotation Yrotation
		JOINT LeftLeg
		{
			OFFSET	0.620834	-39.957500	-1.919341
			CHANNELS 3 Zrotation Xrotation Yrotation
			JOINT LeftFoot
			{
				OFFSET	-0.413890	-44.704761	-3.870325
				CHANNELS 3 Zrotation Xrotation Yrotation
				JOINT LeftFootHeel
				{
					OFFSET	0.164738	-8.918193	-6.555130
					CHANNELS 3 Zrotation Xrotation Yrotation
					End Site
					{
						OFFSET	-0.604053	0.000000	21.044330
					}
				}
			}
		}
	}
	JOINT RightUpLeg
	{
		OFFSET	-12.830505	-7.049846	-1.643436
		CHANNELS 3 Zrotation Xrotation Yrotation
		JOINT RightLeg
		{
			OFFSET	-0.620834	-39.957500	-1.919341
			CHANNELS 3 Zrotation Xrotation Yrotation
			JOINT RightFoot
			{
				OFFSET	0.413890	-44.704761	-3.870325
				CHANNELS 3 Zrotation Xrotation Yrotation
				JOINT RightFootHeel
				{
					OFFSET	-0.164738	-8.918193	-6.555130
					CHANNELS 3 Zrotation Xrotation Yrotation
					End Site
					{
						OFFSET	0.604053	0.000000	21.044330
					}
				}
			}
		}
	}
	JOINT Spine
	{
		OFFSET	0.000000	12.498170	1.820647
		CHANNELS 3 Zrotation Xrotation Yrotation
		JOINT Spine1
		{
			OFFSET	0.000000	7.620000	0.000000
			CHANNELS 3 Zrotation Xrotation Yrotation
			JOINT LeftShoulder
			{
				OFFSET	9.167800	29.136339	-5.551221
				CHANNELS 3 Zrotation Xrotation Yrotation
				JOINT LeftArm
				{
					OFFSET	12.133453	-3.880866	1.461963
					CHANNELS 3 Zrotation Xrotation Yrotation
					JOINT LeftForeArm
					{
						OFFSET	2.507115	-31.664908	-1.069404
						CHANNELS 3 Zrotation Xrotation Yrotation
						JOINT LeftHand
						{
							OFFSET	4.116172	-24.512624	5.009439
							CHANNELS 3 Zrotation Xrotation Yrotation
							End Site
							{
								OFFSET	-0.213136	-10.931856	2.182134
							}
						}
					}
				}
			}
			JOINT RightShoulder
			{
				OFFSET	-9.167800	29.136339	-5.551221
				CHANNELS 3 Zrotation Xrotation Yrotation
				JOINT RightArm
				{
					OFFSET	-12.133453	-3.880866	1.461963
					CHANNELS 3 Zrotation Xrotation Yrotation
					JOINT RightForeArm
					{
						OFFSET	-2.507115	-31.664908	-1.069404
						CHANNELS 3 Zrotation Xrotation Yrotation
						JOINT RightHand
						{
							OFFSET	-4.116172	-24.512624	5.009439
							CHANNELS 3 Zrotation Xrotation Yrotation
							End Site
							{
								OFFSET	0.213136	-10.931856	2.182134
							}
						}
					}
				}
			}
			JOINT Neck
			{
				OFFSET	0.000000	32.926272	-3.635654
				CHANNELS 3 Zrotation Xrotation Yrotation
				JOINT Head
				{
					OFFSET	0.000000	12.481178	4.646143
					CHANNELS 3 Zrotation Xrotation Yrotation
					End Site
					{
						OFFSET	0.000000	17.715204	-2.222063
					}
				}
			}
		}
	}
}
MOTION
Frames:     14
Frame Time: 0.016667
0.000000	99.322608	0.000000	-2.863472	5.978652	39.964539	12.274964	-25.617243	19.124292	2.437608	33.859566	0.800252	-7.040473	-11.818974	2.154957	0.	0.	0.	-17.976519	-26.782503	-16.170322	-0.376076	28.795092	1.110949	8.998440	-3.602479	-3.353578	0.	0.	0.	0.000000	-0.000001	0.000001	-4.067160	23.980293	3.049177	14.479569	-6.084197	5.797991	-15.493635	-29.408520	-12.607510	-104.383324	-36.660313	-78.955704	-2.266939	-0.694333	-5.236309	-8.451591	-1.458621	2.383027	-24.998680	-24.261463	-28.782944	-38.889431	-119.234543	-45.061073	-10.839373	0.313054	15.811196	0.286166	-4.518005	-14.842644	10.705089	-10.097927	-11.451709	
0.000000	99.322608	0.000000	-2.863472	5.978652	39.964539	12.274671	-25.618908	19.113560	2.431291	33.861866	0.809719	-7.039773	-11.819738	2.158203	0.	0.	0.	-17.976519	-26.782503	-16.170322	-0.376076	28.795092	1.110949	8.998440	-3.602479	-3.353578	0.	0.	0.	0.000000	-0.000001	0.000001	-4.067160	23.980293	3.049177	14.481853	-6.084993	5.796034	-15.515043	-29.435308	-12.619536	-104.485031	-36.635834	-79.018089	-2.270865	-0.712312	-5.205332	-8.445917	-1.476172	2.375205	-25.016981	-24.217180	-28.812555	-38.926949	-119.238861	-45.133839	-10.827254	0.316705	15.811726	0.286166	-4.518005	-14.842644	10.705089	-10.097927	-11.451709	
0.000000	99.322608	0.000000	-2.863472	5.978652	39.964539	12.274671	-25.618908	19.113560	2.431129	33.862980	0.800262	-7.037700	-11.822010	2.167744	0.	0.	0.	-17.976519	-26.782503	-16.170322	-0.376076	28.795092	1.110949	8.998440	-3.602479	-3.353578	0.	0.	0.	0.000000	-0.000001	0.000001	-4.067160	23.980293	3.049177	14.481853	-6.084993	5.796034	-15.529974	-29.459044	-12.653294	-104.588142	-36.635990	-79.085739	-2.240561	-0.724961	-5.172938	-8.440418	-1.493174	2.367627	-25.017447	-24.200012	-28.826445	-39.021091	-119.221924	-45.235008	-10.808694	0.303984	15.815940	0.286166	-4.518005	-14.842644	10.705089	-10.097927	-11.451709	
0.000000	99.322608	0.000000	-2.863472	5.978652	39.964539	12.274671	-25.618908	19.113560	2.431129	33.862980	0.800262	-7.037700	-11.822010	2.167744	0.	0.	0.	-17.976519	-26.782503	-16.170322	-0.376076	28.795092	1.110949	8.998440	-3.602479	-3.353578	0.	0.	0.	0.000000	-0.000001	0.000001	-4.067160	23.980293	3.049177	14.481853	-6.084993	5.796034	-15.538640	-29.473080	-12.674388	-104.632858	-36.642197	-79.114037	-2.226880	-0.735263	-5.171559	-8.437650	-1.501753	2.363806	-25.016085	-24.194386	-28.824888	-39.036545	-119.202675	-45.253998	-10.788101	0.301418	15.819491	0.286166	-4.518005	-14.842644	10.705089	-10.097927	-11.451709	
0.000000	99.322608	0.000000	-2.863472	5.978652	39.964539	12.274570	-25.619452	19.110029	2.429071	33.863609	0.804426	-7.037701	-11.822011	2.167743	0.	0.	0.	-17.976519	-26.782503	-16.170322	-0.376076	28.795092	1.110949	8.998440	-3.602479	-3.353578	0.	0.	0.	0.000000	-0.000001	0.000001	-4.067160	23.980293	3.049177	14.481853	-6.084993	5.796034	-15.568804	-29.513996	-12.703321	-104.717216	-36.638340	-79.159340	-2.200554	-0.772773	-5.217847	-8.429725	-1.526299	2.352880	-25.013737	-24.176586	-28.802299	-38.995003	-119.168526	-45.222565	-10.734172	0.332266	15.831305	0.286166	-4.518005	-14.842644	10.705089	-10.097927	-11.451709	
0.000000	99.322608	0.000000	-2.863472	5.978652	39.964539	12.274108	-25.621412	19.091507	2.417872	33.866108	0.826394	-7.037700	-11.822014	2.167745	0.	0.	0.	-17.976519	-26.782503	-16.170322	-0.376076	28.795092	1.110949	8.998440	-3.602479	-3.353578	0.	0.	0.	0.000000	-0.000001	0.000001	-4.067160	23.980293	3.049177	14.484183	-6.085805	5.794050	-15.579475	-29.526499	-12.707644	-104.715691	-36.641785	-79.152962	-2.199523	-0.778123	-5.225331	-8.427345	-1.533644	2.349609	-25.013042	-24.171251	-28.795534	-38.977242	-119.158554	-45.208458	-10.721846	0.345859	15.833046	0.286166	-4.518005	-14.842644	10.705089	-10.097927	-11.451709	
0.000000	99.322608	0.000000	-2.863472	5.978652	39.964539	12.272932	-25.627241	19.048435	2.392375	33.873047	0.877348	-7.037701	-11.822014	2.167745	0.	0.	0.	-17.976519	-26.782503	-16.170322	-0.376076	28.795092	1.110949	8.998440	-3.602479	-3.353578	0.	0.	0.	0.000000	-0.000001	0.000001	-4.067160	23.980293	3.049177	14.493781	-6.089155	5.785855	-15.595607	-29.541464	-12.705296	-104.716278	-36.625603	-79.146484	-2.172704	-0.768055	-5.229269	-8.423028	-1.547040	2.343643	-25.005077	-24.142488	-28.781734	-38.939205	-119.117897	-45.180576	-10.720746	0.336775	15.817863	0.285201	-4.516985	-14.845722	10.706837	-10.098099	-11.448570	
0.000000	99.322608	0.000000	-2.863472	5.978652	39.964539	12.274138	-25.619684	19.086210	2.413669	33.864700	0.832872	-7.037701	-11.822010	2.167748	0.	0.	0.	-17.976519	-26.782503	-16.170322	-0.376076	28.795092	1.110949	8.998440	-3.602479	-3.353578	0.	0.	0.	0.000000	-0.000001	0.000001	-4.067160	23.980293	3.049177	14.500777	-6.102621	5.779580	-15.594013	-29.529346	-12.698850	-104.717308	-36.625500	-79.148071	-2.112141	-0.778011	-5.246884	-8.417064	-1.565512	2.335423	-24.973673	-24.061710	-28.812323	-38.789242	-119.131027	-45.068913	-10.716133	0.374047	15.789212	0.282547	-4.510784	-14.865868	10.727267	-10.104335	-11.410672	
0.000000	99.322608	0.000000	-2.863472	5.978652	39.964539	12.274986	-25.614775	19.114088	2.429663	33.859161	0.799983	-7.037701	-11.822016	2.167743	0.	0.	0.	-17.976519	-26.782503	-16.170322	-0.376076	28.795092	1.110949	8.998440	-3.602479	-3.353578	0.	0.	0.	0.000000	-0.000001	0.000001	-4.067160	23.980293	3.049177	14.501484	-6.110870	5.778749	-15.589615	-29.520723	-12.707411	-104.707115	-36.639751	-79.142204	-2.116201	-0.789909	-5.249724	-8.417064	-1.565512	2.335423	-24.973673	-24.061710	-28.812323	-38.789242	-119.131027	-45.068913	-10.716133	0.374047	15.789212	0.282547	-4.510784	-14.865868	10.727267	-10.104335	-11.410672	
0.000000	99.322608	0.000000	-2.863472	5.978652	39.964539	12.276346	-25.607548	19.160770	2.456841	33.850765	0.744860	-7.037700	-11.822014	2.167745	0.	0.	0.	-17.976519	-26.782503	-16.170322	-0.376076	28.795092	1.110949	8.998440	-3.602479	-3.353578	0.	0.	0.	0.000000	-0.000001	0.000001	-4.069132	23.970638	3.048820	14.497572	-6.130569	5.781792	-15.559835	-29.472519	-12.723543	-104.653763	-36.675541	-79.114433	-2.006406	-0.833838	-5.263123	-8.412888	-1.561803	2.335495	-24.917519	-23.946644	-28.943945	-38.777523	-119.124084	-45.116127	-10.717195	0.340959	15.729446	0.312621	-4.505092	-14.875959	10.732047	-10.106112	-11.363652	
0.000000	99.322608	0.000000	-2.863472	5.978652	39.964539	12.276346	-25.607548	19.160770	2.456841	33.850765	0.744860	-7.037700	-11.822014	2.167745	0.	0.	0.	-17.976519	-26.782503	-16.170322	-0.376076	28.795092	1.110949	8.998440	-3.602479	-3.353578	0.	0.	0.	0.000000	-0.000001	0.000001	-4.071884	23.957153	3.048311	14.502160	-6.121313	5.778597	-15.523871	-29.422348	-12.693915	-104.684395	-36.654659	-79.156097	-2.005000	-0.855256	-5.266452	-8.409565	-1.548852	2.339054	-24.888092	-23.889503	-29.020323	-38.768810	-119.129196	-45.140366	-10.720324	0.332727	15.699190	0.329409	-4.505592	-14.882178	10.730191	-10.099768	-11.338604	
0.000000	99.322608	0.000000	-2.863472	5.978652	39.964539	12.276346	-25.607548	19.160770	2.456841	33.850765	0.744860	-7.037700	-11.822014	2.167745	0.	0.	0.	-17.976519	-26.782503	-16.170322	-0.376076	28.795092	1.110949	8.998440	-3.602479	-3.353578	0.	0.	0.	0.000000	-0.000001	0.000001	-4.074672	23.943487	3.047792	14.514628	-6.111079	5.768784	-15.478686	-29.349691	-12.608042	-104.760353	-36.581779	-79.237083	-1.994363	-0.855240	-5.265246	-8.399585	-1.530460	2.336343	-24.863190	-23.834543	-29.081337	-38.690136	-119.169907	-45.094334	-10.715358	0.375725	15.680530	0.348068	-4.508029	-14.889519	10.725673	-10.091441	-11.313283	
0.000000	99.322608	0.000000	-2.863472	5.978652	39.964539	12.276346	-25.607548	19.160770	2.456841	33.850765	0.744860	-7.037700	-11.822014	2.167745	0.	0.	0.	-17.976519	-26.782503	-16.170322	-0.376076	28.795092	1.110949	8.998440	-3.602479	-3.353578	0.	0.	0.	0.000000	-0.000001	0.000001	-4.074672	23.943487	3.047792	14.514628	-6.111079	5.768784	-15.478686	-29.349691	-12.608042	-104.760353	-36.581779	-79.237083	-1.994363	-0.855240	-5.265246	-8.399585	-1.530460	2.336343	-24.863190	-23.834543	-29.081337	-38.690136	-119.169907	-45.094334	-10.715358	0.375725	15.680530	0.348068	-4.508029	-14.889519	10.725673	-10.091441	-11.313283	
0.000000	99.322608	0.000000	-2.863472	5.978652	39.964539	12.276346	-25.607548	19.160770	2.456841	33.850765	0.744860	-7.037700	-11.822014	2.167745	0.	0.	0.	-17.976519	-26.782503	-16.170322	-0.376076	28.795092	1.110949	8.998440	-3.602479	-3.353578	0.	0.	0.	0.000000	-0.000001	0.000001	-4.080333	23.915730	3.046746	14.541843	-6.090966	5.747207	-15.397605	-29.217981	-12.451686	-104.893074	-36.460594	-79.379723	-1.994644	-0.878856	-5.183063	-8.372168	-1.487424	2.323943	-24.843620	-23.730785	-29.096094	-38.719311	-119.126274	-45.144287	-10.626676	0.367146	15.689874	0.388906	-4.509723	-14.904082	10.712026	-10.077436	-11.264720	
